<!--?xml version="1.0" standalone="no"?-->

<svg version="1.0" xmlns="http://www.w3.org/2000/svg" width="300.000000pt" height="300.000000pt" viewBox="0 0 300.000000 300.000000" preserveAspectRatio="xMidYMid meet">
<g transform="translate(0.000000,300.000000) scale(0.100000,-0.100000)" fill="#403739" stroke="none">
<path class="node" id="node1" d="M1067 2072 l-427 -427 68 -68 c37 -37 72 -67 77 -67 6 0 169 159 362
352 l353 353 353 -353 c193 -193 356 -352 362 -352 5 0 40 30 77 67 l68 67
-135 136 -135 137 0 276 0 276 -27 3 c-16 2 -70 2 -120 0 l-93 -3 0 -150 c0
-82 -3 -149 -8 -149 -4 0 -81 74 -172 165 -91 91 -167 165 -170 165 -3 0 -197
-192 -433 -428z"></path>
<path class="node" id="node2" d="M1208 1813 l-287 -288 -1 -365 c0 -200 -4 -368 -8 -372 -4 -4 -29 -8
-57 -10 l-50 -3 -3 -68 -3 -67 276 0 275 0 0 230 0 230 150 0 150 0 0 -230 0
-230 274 0 274 0 -2 68 -1 67 -57 3 -58 3 -2 347 c-1 191 -2 360 -3 375 -1 23
-55 82 -286 313 -156 156 -286 284 -289 284 -3 0 -134 -129 -292 -287z m132
-423 l0 -120 -105 0 -105 0 0 98 c0 53 -3 107 -6 120 -6 22 -6 22 105 22 l111
0 0 -120z m532 113 c2 -5 2 -59 0 -120 l-3 -113 -105 0 -104 0 0 120 0 120
104 0 c58 0 106 -3 108 -7z"></path>




</g>
<g transform="translate(0.000000,300.000000) scale(0.100000,-0.100000)" fill="#FFFFFF" stroke="none">

<path class="node" id="node8" d="M1124 1488 c3 -13 6 -67 6 -120 l0 -98 105 0 105 0 0 120 0 120 -111
0 c-111 0 -111 0 -105 -22z"></path>
<path class="node" id="node9" d="M1660 1390 l0 -120 104 0 105 0 3 113 c2 61 2 115 0 120 -2 4 -50 7
-108 7 l-104 0 0 -120z"></path>
</g>
</svg>